<svg xmlns="http://www.w3.org/2000/svg" viewBox="0 0 600 300" role="img" aria-labelledby="title desc">
  <title id="title">Visit tracker fallback map</title>
  <desc id="desc">A fallback world map displayed when the live visitor tracker is unavailable.</desc>
  <rect width="600" height="300" fill="#fbfafc"/>
  <path d="M74 88c29-25 76-32 111-15 18 9 18 25 5 34-15 10-35 4-50 12-15 8-15 29-31 36-18 8-50-4-59-24-7-16 5-31 24-43z" fill="#dfe7ec"/>
  <path d="M167 152c24-2 46 9 52 27 8 23-16 52-36 67-18 14-34 11-37-4-3-16 14-29 10-45-3-13-22-19-20-31 2-9 14-13 31-14z" fill="#dfe7ec"/>
  <path d="M272 75c32-17 84-14 117 1 20 9 28 23 17 34-13 13-43 6-57 18-12 10-2 27-14 37-13 11-46 5-66-9-21-14-31-36-20-55 5-10 12-18 23-26z" fill="#dfe7ec"/>
  <path d="M333 166c25-12 63-3 79 19 17 22 8 53-14 69-19 14-47 11-57-6-8-14 4-27-4-42-7-12-25-14-25-25 0-6 8-11 21-15z" fill="#dfe7ec"/>
  <path d="M424 93c34-19 88-15 111 8 13 13 10 30-8 39-19 10-47 2-62 14-12 10-8 28-22 35-17 8-46-8-53-28-8-24 7-52 34-68z" fill="#dfe7ec"/>
  <path d="M488 200c24-3 52 5 64 22 12 18 0 37-25 40-22 3-49-7-59-23-11-17-3-35 20-39z" fill="#dfe7ec"/>
  <g fill="#6f4bb5" opacity="0.85">
    <circle cx="140" cy="111" r="5"/>
    <circle cx="190" cy="183" r="4"/>
    <circle cx="323" cy="119" r="5"/>
    <circle cx="375" cy="207" r="4"/>
    <circle cx="468" cy="132" r="5"/>
    <circle cx="513" cy="226" r="4"/>
  </g>
  <g fill="none" stroke="#8d77bd" stroke-width="1.5" opacity="0.45">
    <path d="M140 111c55 24 121 27 183 8"/>
    <path d="M323 119c53 21 95 25 145 13"/>
    <path d="M375 207c38 12 80 18 138 19"/>
  </g>
</svg>
